<?xml version="1.0" encoding="UTF-8" standalone="no"?>
<svg
   xmlns:dc="http://purl.org/dc/elements/1.1/"
   xmlns:cc="http://creativecommons.org/ns#"
   xmlns:rdf="http://www.w3.org/1999/02/22-rdf-syntax-ns#"
   xmlns:svg="http://www.w3.org/2000/svg"
   xmlns="http://www.w3.org/2000/svg"
   viewBox="0 0 1600 1267"
   height="1267"
   width="1600"
   id="svg122"
   version="1.1">
  <metadata
     id="metadata128">
    <rdf:RDF>
      <cc:Work
         rdf:about="">
        <dc:format>image/svg+xml</dc:format>
        <dc:type
           rdf:resource="http://purl.org/dc/dcmitype/StillImage" />
        <dc:title></dc:title>
      </cc:Work>
    </rdf:RDF>
  </metadata>
  <defs
     id="defs126" />
  <path
     id="path153"
     d="m 783.40219,935.00067 c -54.60446,-4.55152 -103.95079,-27.98162 -142.44973,-67.63645 -32.87147,-33.8584 -52.98258,-73.60323 -60.40603,-119.37816 -2.37862,-14.66712 -2.13397,-52.35055 0.43751,-67.39209 6.59788,-38.59351 20.16765,-70.86996 42.19956,-100.37403 8.37706,-11.21817 33.40643,-36.62247 42.58206,-43.21994 35.18958,-25.30204 70.21987,-39.31765 107.64152,-43.06736 15.43259,-1.54637 49.88592,-0.6895 62.09292,1.54429 23.24646,4.25391 42.53814,10.50922 63.14133,20.47351 23.21241,11.22618 41.23804,23.98298 59.0327,41.77765 50.96247,50.96244 72.79147,120.08707 60.71797,192.27191 -12.8462,76.80489 -65.26133,141.79133 -137.41846,170.37705 -29.01462,11.49441 -66.93295,17.17746 -97.57135,14.62362 z m 36.17413,-24.06458 c 29.08675,-2.8329 60.90283,-13.66492 86.22196,-29.35491 17.44507,-10.81051 35.77556,-26.50697 46.15519,-39.52283 31.86721,-39.96089 45.34033,-78.38824 45.42483,-129.55835 0.0344,-20.86696 -1.5834,-34.72825 -6.06931,-52 -8.71745,-33.56409 -26.97861,-64.44135 -52.94702,-89.52656 -16.31211,-15.75732 -31.3591,-26.24542 -51.57501,-35.94896 -26.6901,-12.81113 -45.70959,-17.57262 -76.87749,-19.24609 -19.27128,-1.03473 -22.9517,-0.96996 -34.26203,0.60291 -29.95884,4.16623 -56.56338,13.62128 -81.03562,28.79945 -20.70674,12.84273 -44.39302,35.3463 -57.24123,54.38307 C 627.10101,614.77989 624,620.16 624,622.76113 c 0,1.14698 -1.1116,3.40648 -2.47022,5.0211 -4.37615,5.20077 -11.14979,25.04501 -16.1591,47.34018 -2.11573,9.41659 -2.64611,14.85571 -3.07721,31.55739 -0.61723,23.91239 0.50558,35.49557 5.23094,53.96349 10.93321,42.72987 32.55727,77.86925 64.25133,104.40923 41.73979,34.95208 93.87151,51.13598 147.80058,45.88357 z M 763,891.49667 C 752.24842,889.75322 738.6656,885.80464 728.96366,881.6022 684.12126,862.17846 643.58661,815.2674 627.1192,763.73684 622.02649,747.80048 620.62176,737.11318 620.58185,714 c -0.0382,-22.10449 1.47305,-33.61333 6.85031,-52.16914 4.18638,-14.44632 15.00681,-40.02635 17.33738,-40.98644 0.45984,-0.18943 3.59697,-4.39447 6.9714,-9.34453 24.6695,-36.1885 62.22782,-62.49381 104.25906,-73.02154 10.43802,-2.61446 30.6319,-5.17929 31.77657,-4.03596 0.39788,0.39743 0.86865,23.34768 1.04615,51.00056 l 0.32272,50.27796 -3.19772,0.63955 c -4.94034,0.98806 -22.51209,0.75566 -25.38262,-0.33571 L 758,635.0495 v -27.15256 -27.15256 l -4.25,0.66215 c -7.24425,1.12866 -20.92182,5.62431 -28.25,9.28545 -14.59971,7.29396 -28.19394,19.13209 -39.49575,34.39366 -3.42715,4.6279 -6.61684,8.65771 -7.0882,8.95514 -1.40959,0.88944 -9.44438,18.86818 -12.27166,27.45922 -12.86551,39.09343 -10.49595,83.69253 6.31833,118.9219 8.7028,18.23414 23.86056,36.04372 40.33621,47.39296 9.44485,6.50608 25.39455,14.17379 36.45107,17.52361 l 8.25,2.49952 V 820.419 793 h 15.5 15.5 l -0.11688,43.25 c -0.0643,23.7875 -0.40179,46.175 -0.75,49.75 l -0.63312,6.5 -8,0.18751 c -4.4,0.10313 -11.825,-0.43275 -16.5,-1.19084 z m 45,-49.37273 v -51.17741 l 14.75,0.27674 14.75,0.27673 0.26607,27.25 c 0.24502,25.09379 0.40327,27.24883 2,27.23527 2.95512,-0.0251 24.69412,-7.68418 31.3835,-11.05704 26.30552,-13.26351 49.9812,-39.98987 58.6895,-66.2518 4.10674,-12.38485 6.52528,-26.6047 5.67816,-33.38483 L 934.85609,730 H 871.42804 808 v -97.6524 -97.65241 l 11.58777,0.66183 c 19.95594,1.13976 33.98381,4.9233 54.04219,14.57603 28.45747,13.69464 54.11205,35.82821 70.57212,60.88634 3.13614,4.77434 6.13214,9.17969 6.65778,9.78968 1.87396,2.1747 5.14014,9.34465 5.14014,11.2837 0,2.17394 -0.64866,2.45155 -9.78266,4.18676 -6.40293,1.21638 -13.88823,0.83648 -20.27747,-1.02915 -3.38071,-0.98715 -18.31713,-13.33978 -17.32713,-14.32979 1.52243,-1.52243 -24.085,-22.09065 -35.33701,-28.38313 C 865.22979,587.83791 844.56422,579 842.08893,579 c -2.81031,0 -3.07071,5.38933 -3.08024,63.75 L 839,696 h 67.45469 67.45468 l 0.64139,3.41888 c 0.35276,1.88038 0.45341,13.69288 0.22367,26.25 l -0.41772,22.83112 -3.74649,12 c -10.49862,33.627 -25.66721,59.33047 -48.65539,82.44747 -30.4694,30.64014 -65.86854,47.63 -103.70483,49.77325 L 808,893.30134 Z m -53.38003,-380.7299 c -1.18267,-16.82478 -7.45763,-36.03357 -15.73617,-48.17119 -1.77168,-2.59757 -4.58681,-6.72368 -6.25584,-9.16914 -2.87867,-4.21781 -3.06269,-5.09134 -3.58128,-17 C 728.74601,380.14917 728.725,369.86503 729,364.20007 l 0.5,-10.29992 4.15224,4.29992 c 5.60611,5.80551 12.90753,17.39223 15.79665,25.06791 3.09361,8.21898 6.9576,22.67486 9.48756,35.49471 1.11392,5.64448 2.69801,11.56353 3.52019,13.15345 1.97344,3.81622 7.19146,6.93682 12.90974,7.7206 4.4631,0.61173 4.77981,0.47965 8.99487,-3.75134 4.00113,-4.01624 4.42711,-4.93548 5.06035,-10.92 0.7753,-7.32701 -0.51064,-17.30312 -2.80143,-21.73303 -1.69083,-3.2697 -6.14359,-7.43236 -12.98644,-12.14036 -5.71156,-3.92965 -6.56773,-7.40893 -4.34437,-17.65443 3.26648,-15.05232 12.28396,-31.19667 21.24096,-38.0285 8.04023,-6.13259 18.23745,-3.82023 27.40952,6.21548 6.19981,6.78358 10.4564,15.54122 13.62516,28.03282 3.29448,12.98722 3.23816,17.84107 -0.23979,20.66829 -8.09365,6.57929 -11.14885,10.34135 -12.73448,15.68076 -2.88405,9.71167 -4.81073,21.00731 -4.16777,24.4346 1.5939,8.49623 14.07008,13.11176 22.80536,8.43677 3.01951,-1.61599 5.38802,-7.73893 10.20335,-26.37713 2.55766,-9.89963 6.28359,-23.51239 8.27985,-30.25059 l 3.62958,-12.25126 6.73222,-6.49941 C 869.77604,359.92474 873.47551,357 874.29436,357 c 1.74241,0 2.36462,2.10527 3.27919,11.09533 0.67447,6.62999 -1.79251,29.72019 -3.71582,34.77888 -0.50376,1.32497 -3.15395,4.8578 -5.88932,7.85073 -7.40449,8.1017 -11.49431,17.63535 -16.89121,39.37457 -2.58342,10.40622 -5.15135,19.37464 -5.70653,19.92982 -0.67922,0.67922 -2.42942,0.5084 -5.3504,-0.52218 -15.74935,-5.55669 -46.09441,-8.04572 -62.68315,-5.14152 -5.03958,0.88228 -12.06615,2.65798 -15.61458,3.94599 l -6.4517,2.34184 z"
     style="fill:#000000" />
</svg>
